<svg width="1440" height="1024" viewBox="0 0 1440 1024" fill="none" xmlns="http://www.w3.org/2000/svg">
<g clip-path="url(#clip0_24_33)">
<rect width="1440" height="1024" fill="#233550"/>
<circle cx="57" cy="331" r="2" fill="#D9D9D9"/>
<circle cx="1150" cy="574" r="2" fill="#D9D9D9"/>
<circle cx="172.879" cy="860.628" r="2" transform="rotate(-78.4224 172.879 860.628)" fill="#D9D9D9"/>
<circle cx="1004" cy="368" r="2" fill="#FFE5B7"/>
<circle cx="52" cy="435" r="2" fill="#535DB2"/>
<circle cx="1421" cy="230" r="2" fill="#D9D9D9"/>
<circle cx="131" cy="319" r="2" fill="#FED385"/>
<circle cx="1244" cy="732" r="2" fill="#FFE5B7"/>
<circle cx="1342.25" cy="908.745" r="2" transform="rotate(-75.8555 1342.25 908.745)" fill="#FFE5B7"/>
<circle cx="346.53" cy="800.25" r="2" transform="rotate(-78.4224 346.53 800.25)" fill="#FFE5B7"/>
<circle cx="146" cy="593" r="2" fill="#D9D9D9"/>
<circle cx="1063" cy="423" r="2" fill="#D9D9D9"/>
<circle cx="335" cy="294" r="2" fill="#535DB2"/>
<circle cx="320" cy="551" r="2" fill="#D9D9D9"/>
<circle cx="867" cy="228" r="2" fill="#535DB2"/>
<circle cx="1154" cy="514" r="2" fill="#D9D9D9"/>
<circle cx="114.903" cy="844.668" r="2" transform="rotate(-78.4224 114.903 844.668)" fill="#D9D9D9"/>
<circle cx="1008" cy="308" r="2" fill="#D9D9D9"/>
<circle cx="269" cy="73" r="2" fill="#FFE5B7"/>
<circle cx="1158.27" cy="50.003" r="2" transform="rotate(-33.519 1158.27 50.003)" fill="#FFE5B7"/>
<circle cx="1324.06" cy="52.3041" r="2" transform="rotate(-33.519 1324.06 52.3041)" fill="#FFE5B7"/>
<circle cx="484" cy="488" r="2" fill="#D9D9D9"/>
<circle cx="1137" cy="324" r="2" fill="#FFE5B7"/>
<circle cx="447" cy="96" r="2" fill="#FFE5B7"/>
<circle cx="763" cy="79" r="2" fill="#FFE5B7"/>
<circle cx="1318" cy="451" r="2" fill="#D9D9D9"/>
<circle cx="86.0987" cy="671.361" r="2" transform="rotate(-78.4224 86.0987 671.361)" fill="#D9D9D9"/>
<circle cx="1199" cy="561" r="2" fill="#FFE5B7"/>
<circle cx="106" cy="318" r="2" fill="#FFE5B7"/>
<circle cx="1165.44" cy="910.594" r="2" transform="rotate(-75.8555 1165.44 910.594)" fill="#FFE5B7"/>
<circle cx="169.978" cy="810.016" r="2" transform="rotate(-78.4224 169.978 810.016)" fill="#FFE5B7"/>
<circle cx="1053" cy="355" r="2" fill="#FFE5B7"/>
<circle cx="101" cy="422" r="2" fill="#D9D9D9"/>
<circle cx="1293" cy="719" r="2" fill="#FFE5B7"/>
<circle cx="183" cy="306" r="2" fill="#D9D9D9"/>
<circle cx="1341.62" cy="858.054" r="2" transform="rotate(-75.8555 1341.62 858.054)" fill="#FFE5B7"/>
<circle cx="343.629" cy="749.638" r="2" transform="rotate(-78.4224 343.629 749.638)" fill="#FFE5B7"/>
<circle cx="195" cy="580" r="2" fill="#D9D9D9"/>
<circle cx="1230" cy="565" r="2" fill="#FFE5B7"/>
<circle cx="1112" cy="410" r="2" fill="#D9D9D9"/>
<circle cx="422" cy="182" r="2" fill="#D9D9D9"/>
<circle cx="738" cy="165" r="2" fill="#D9D9D9"/>
<circle cx="178" cy="187" r="2" fill="#535DB2"/>
<circle cx="1145.36" cy="195.297" r="2" transform="rotate(-33.519 1145.36 195.297)" fill="#535DB2"/>
<circle cx="1311.15" cy="197.598" r="2" transform="rotate(-33.519 1311.15 197.598)" fill="#535DB2"/>
<circle cx="396" cy="602" r="2" fill="#D9D9D9"/>
<circle cx="1176.89" cy="881.511" r="2" transform="rotate(-75.8555 1176.89 881.511)" fill="#FFE5B7"/>
<circle cx="180.118" cy="780.45" r="2" transform="rotate(-78.4224 180.118 780.45)" fill="#FFE5B7"/>
<circle cx="1084" cy="359" r="2" fill="#FFE5B7"/>
<circle cx="53" cy="269" r="2" fill="#D9D9D9"/>
<circle cx="365" cy="225" r="2" fill="#D9D9D9"/>
<circle cx="1240" cy="752" r="2" fill="#D9D9D9"/>
<circle cx="886" cy="26" r="2" fill="#D9D9D9"/>
<circle cx="23" cy="238" r="2" fill="#535DB2"/>
<circle cx="35" cy="512" r="2" fill="#D9D9D9"/>
<circle cx="130" cy="339" r="2" fill="#FFE5B7"/>
<circle cx="1360.67" cy="917.511" r="2" transform="rotate(-75.8555 1360.67 917.511)" fill="#D9D9D9"/>
<circle cx="142" cy="613" r="2" fill="#D9D9D9"/>
<circle cx="1059" cy="443" r="2" fill="#D9D9D9"/>
<circle cx="305" cy="302" r="2" fill="#535DB2"/>
<circle cx="290" cy="559" r="2" fill="#D9D9D9"/>
<circle cx="1344" cy="269" r="2" fill="#D9D9D9"/>
<circle cx="821" cy="327" r="2" fill="#D9D9D9"/>
<circle cx="1002" cy="454" r="2" fill="#D9D9D9"/>
<circle cx="262" cy="93" r="2" fill="#FED385"/>
<circle cx="1163.48" cy="70.5426" r="2" transform="rotate(-33.519 1163.48 70.5426)" fill="#FED385"/>
<circle cx="1329.27" cy="72.8436" r="2" transform="rotate(-33.519 1329.27 72.8436)" fill="#FED385"/>
<circle cx="480" cy="508" r="2" fill="#D9D9D9"/>
<circle cx="1130" cy="344" r="2" fill="#535DB2"/>
<circle cx="440" cy="116" r="2" fill="#535DB2"/>
<circle cx="756" cy="99" r="2" fill="#535DB2"/>
<circle cx="1314" cy="471" r="2" fill="#D9D9D9"/>
<circle cx="104.889" cy="679.293" r="2" transform="rotate(-78.4224 104.889 679.293)" fill="#D9D9D9"/>
<circle cx="1168" cy="265" r="2" fill="#D9D9D9"/>
<circle cx="478" cy="37" r="2" fill="#D9D9D9"/>
<circle cx="794" cy="20" r="2" fill="#D9D9D9"/>
<circle cx="378" cy="288" r="2" fill="#D9D9D9"/>
<circle cx="1002" cy="248" r="2" fill="#FFE5B7"/>
<circle cx="1055" cy="270" r="2" fill="#D9D9D9"/>
<circle cx="1319" cy="670" r="2" fill="#D9D9D9"/>
<circle cx="763" cy="313" r="2" fill="#D9D9D9"/>
<circle cx="1301" cy="284" r="2" fill="#D9D9D9"/>
<circle cx="1354" cy="306" r="2" fill="#D9D9D9"/>
<circle cx="92" cy="302" r="2" fill="#FFE5B7"/>
<circle cx="209" cy="257" r="2" fill="#D9D9D9"/>
<circle cx="1300.46" cy="820.868" r="2" transform="rotate(-75.8555 1300.46 820.868)" fill="#D9D9D9"/>
<circle cx="300.844" cy="714.333" r="2" transform="rotate(-78.4224 300.844 714.333)" fill="#D9D9D9"/>
<circle cx="221" cy="531" r="2" fill="#D9D9D9"/>
<circle cx="1135" cy="361" r="2" fill="#535DB2"/>
<circle cx="445" cy="133" r="2" fill="#535DB2"/>
<circle cx="761" cy="116" r="2" fill="#535DB2"/>
<circle cx="1286" cy="669" r="2" fill="#D9D9D9"/>
<circle cx="311" cy="57" r="2" fill="#D9D9D9"/>
<circle cx="1184.45" cy="13.4708" r="2" transform="rotate(-33.519 1184.45 13.4708)" fill="#D9D9D9"/>
<circle cx="1350.24" cy="15.7718" r="2" transform="rotate(-33.519 1350.24 15.7718)" fill="#D9D9D9"/>
<circle cx="1065" cy="16" r="2" fill="#D9D9D9"/>
<circle cx="211" cy="67" r="2" fill="#FFE5B7"/>
<circle cx="1106.6" cy="77.0292" r="2" transform="rotate(-33.519 1106.6 77.0292)" fill="#FFE5B7"/>
<circle cx="1272.4" cy="79.3302" r="2" transform="rotate(-33.519 1272.4 79.3302)" fill="#FFE5B7"/>
<circle cx="965" cy="26" r="2" fill="#FFE5B7"/>
<circle cx="99" cy="268" r="2" fill="#D9D9D9"/>
<circle cx="1354" cy="537" r="2" fill="#D9D9D9"/>
<circle cx="176" cy="256" r="2" fill="#FFE5B7"/>
<circle cx="1291.42" cy="852.623" r="2" transform="rotate(-75.8555 1291.42 852.623)" fill="#D9D9D9"/>
<circle cx="293.241" cy="746.461" r="2" transform="rotate(-78.4224 293.241 746.461)" fill="#D9D9D9"/>
<circle cx="188" cy="530" r="2" fill="#FFE5B7"/>
<circle cx="1105" cy="360" r="2" fill="#D9D9D9"/>
<circle cx="305" cy="159" r="2" fill="#D9D9D9"/>
<circle cx="1235.78" cy="101.822" r="2" transform="rotate(-33.519 1235.78 101.822)" fill="#D9D9D9"/>
<circle cx="1401.57" cy="104.123" r="2" transform="rotate(-33.519 1401.57 104.123)" fill="#D9D9D9"/>
<circle cx="520" cy="574" r="2" fill="#D9D9D9"/>
<circle cx="1180.04" cy="754.428" r="2" transform="rotate(-75.8555 1180.04 754.428)" fill="#D9D9D9"/>
<circle cx="328" cy="180" r="2" fill="#D9D9D9"/>
<circle cx="1266.55" cy="106.629" r="2" transform="rotate(-33.519 1266.55 106.629)" fill="#D9D9D9"/>
<circle cx="1432.34" cy="108.93" r="2" transform="rotate(-33.519 1432.34 108.93)" fill="#D9D9D9"/>
<circle cx="1179" cy="261" r="2" fill="#FFE5B7"/>
<circle cx="489" cy="33" r="2" fill="#FFE5B7"/>
<circle cx="805" cy="16" r="2" fill="#FFE5B7"/>
<circle cx="1360" cy="388" r="2" fill="#D9D9D9"/>
<circle cx="154.5" cy="211.5" r="1.5" fill="#D2D6DB"/>
<circle cx="263.5" cy="164.5" r="1.5" fill="#D2D6DB"/>
<circle cx="1204.21" cy="129.324" r="1.5" transform="rotate(-33.519 1204.21 129.324)" fill="#D2D6DB"/>
<circle cx="1370.01" cy="131.625" r="1.5" transform="rotate(-33.519 1370.01 131.625)" fill="#D2D6DB"/>
<circle cx="1114.5" cy="245.5" r="1.5" fill="#D2D6DB"/>
<circle cx="1295.5" cy="372.5" r="1.5" fill="#D2D6DB"/>
<circle cx="227.5" cy="112.5" r="1.5" fill="#D2D6DB"/>
<circle cx="1145.49" cy="105.851" r="1.5" transform="rotate(-33.519 1145.49 105.851)" fill="#D2D6DB"/>
<circle cx="1311.28" cy="108.152" r="1.5" transform="rotate(-33.519 1311.28 108.152)" fill="#D2D6DB"/>
<circle cx="1084.5" cy="230.5" r="1.5" fill="#D2D6DB"/>
<circle cx="1137.5" cy="252.5" r="1.5" fill="#D2D6DB"/>
<circle cx="447.5" cy="24.5" r="1.5" fill="#D2D6DB"/>
<circle cx="763.5" cy="7.5" r="1.5" fill="#D2D6DB"/>
<circle cx="222.5" cy="238.5" r="1.5" fill="#D2D6DB"/>
<circle cx="599.5" cy="314.5" r="1.5" fill="#D2D6DB"/>
<circle cx="1223.5" cy="274.5" r="1.5" fill="#D2D6DB"/>
<circle cx="533.5" cy="46.5" r="1.5" fill="#D2D6DB"/>
<circle cx="849.5" cy="29.5" r="1.5" fill="#D2D6DB"/>
<circle cx="1276.5" cy="296.5" r="1.5" fill="#D2D6DB"/>
<circle cx="586.5" cy="68.5" r="1.5" fill="#D2D6DB"/>
<circle cx="902.5" cy="51.5" r="1.5" fill="#D2D6DB"/>
<circle cx="562.5" cy="23.5" r="1.5" fill="#D2D6DB"/>
<circle cx="1175.5" cy="645.5" r="1.5" fill="#D2D6DB"/>
<circle cx="293.5" cy="37.5" r="1.5" fill="#D2D6DB"/>
<circle cx="831.5" cy="8.5" r="1.5" fill="#D2D6DB"/>
<circle cx="198.5" cy="197.5" r="1.5" fill="#D2D6DB"/>
<circle cx="1168.25" cy="192.73" r="1.5" transform="rotate(-33.519 1168.25 192.73)" fill="#D2D6DB"/>
<circle cx="1334.04" cy="195.031" r="1.5" transform="rotate(-33.519 1334.04 195.031)" fill="#D2D6DB"/>
<circle cx="1049.5" cy="278.5" r="1.5" fill="#D2D6DB"/>
<circle cx="1280.5" cy="638.5" r="1.5" fill="#D2D6DB"/>
<circle cx="1230.5" cy="405.5" r="1.5" fill="#D2D6DB"/>
<circle cx="540.5" cy="177.5" r="1.5" fill="#D2D6DB"/>
<circle cx="856.5" cy="160.5" r="1.5" fill="#D2D6DB"/>
<circle cx="189.5" cy="29.5" r="1.5" fill="#D2D6DB"/>
<circle cx="43.5" cy="24.5" r="1.5" fill="#D2D6DB"/>
<circle cx="65.5" cy="232.5" r="1.5" fill="#D2D6DB"/>
<circle cx="1241.63" cy="954.03" r="1.5" transform="rotate(-75.8555 1241.63 954.03)" fill="#D2D6DB"/>
<circle cx="248.042" cy="849.997" r="1.5" transform="rotate(-78.4224 248.042 849.997)" fill="#D2D6DB"/>
<circle cx="1029.5" cy="439.5" r="1.5" fill="#D2D6DB"/>
<circle cx="77.5" cy="506.5" r="1.5" fill="#D2D6DB"/>
<circle cx="170.5" cy="225.5" r="1.5" fill="#D2D6DB"/>
<circle cx="1316.5" cy="638.5" r="1.5" fill="#D2D6DB"/>
<circle cx="1260.5" cy="850.503" r="1.5" transform="rotate(-75.8555 1260.5 850.503)" fill="#D2D6DB"/>
<circle cx="262.258" cy="745.728" r="1.5" transform="rotate(-78.4224 262.258 745.728)" fill="#D2D6DB"/>
<circle cx="1131.5" cy="432.5" r="1.5" fill="#E3B5B5"/>
<circle cx="441.5" cy="204.5" r="1.5" fill="#E3B5B5"/>
<circle cx="757.5" cy="187.5" r="1.5" fill="#E3B5B5"/>
<circle cx="182.5" cy="499.5" r="1.5" fill="#D2D6DB"/>
<circle cx="1099.5" cy="329.5" r="1.5" fill="#D2D6DB"/>
<circle cx="153.5" cy="263.5" r="1.5" fill="#D2D6DB"/>
<circle cx="1173.5" cy="722.5" r="1.5" fill="#D2D6DB"/>
<circle cx="78.5" cy="38.5" r="1.5" fill="#D2D6DB"/>
<circle cx="10.5" cy="297.5" r="1.5" fill="#E3B5B5"/>
<circle cx="22.5" cy="571.5" r="1.5" fill="#D2D6DB"/>
<circle cx="206.5" cy="225.5" r="1.5" fill="#D2D6DB"/>
<circle cx="1269.3" cy="815.595" r="1.5" transform="rotate(-75.8555 1269.3 815.595)" fill="#D2D6DB"/>
<circle cx="1284.5" cy="527.5" r="1.5" fill="#D2D6DB"/>
<circle cx="269.483" cy="710.461" r="1.5" transform="rotate(-78.4224 269.483 710.461)" fill="#D2D6DB"/>
<circle cx="1167.5" cy="432.5" r="1.5" fill="#E3B5B5"/>
<circle cx="477.5" cy="204.5" r="1.5" fill="#E3B5B5"/>
<circle cx="793.5" cy="187.5" r="1.5" fill="#E3B5B5"/>
<circle cx="37.7705" cy="815.086" r="1.5" transform="rotate(-78.4224 37.7705 815.086)" fill="#E3B5B5"/>
<circle cx="218.5" cy="499.5" r="1.5" fill="#D2D6DB"/>
<circle cx="1135.5" cy="329.5" r="1.5" fill="#D2D6DB"/>
<circle cx="445.5" cy="101.5" r="1.5" fill="#D2D6DB"/>
<circle cx="761.5" cy="84.5" r="1.5" fill="#D2D6DB"/>
<circle cx="63.5" cy="309.5" r="1.5" fill="#E3B5B5"/>
<circle cx="1315.81" cy="974.786" r="1.5" transform="rotate(-75.8555 1315.81 974.786)" fill="#D2D6DB"/>
<circle cx="323.074" cy="867.409" r="1.5" transform="rotate(-78.4224 323.074 867.409)" fill="#D2D6DB"/>
<circle cx="75.5" cy="583.5" r="1.5" fill="#D2D6DB"/>
<circle cx="232.5" cy="149.5" r="1.5" fill="#E3B5B5"/>
<circle cx="1170.09" cy="133.937" r="1.5" transform="rotate(-33.519 1170.09 133.937)" fill="#E3B5B5"/>
<circle cx="1335.88" cy="136.238" r="1.5" transform="rotate(-33.519 1335.88 136.238)" fill="#E3B5B5"/>
<circle cx="450.5" cy="564.5" r="1.5" fill="#D2D6DB"/>
<circle cx="997.5" cy="241.5" r="1.5" fill="#E3B5B5"/>
<circle cx="1208.5" cy="509.5" r="1.5" fill="#D2D6DB"/>
<circle cx="1153.85" cy="819.5" r="1.5" transform="rotate(-75.8555 1153.85 819.5)" fill="#D2D6DB"/>
<circle cx="154.319" cy="719.532" r="1.5" transform="rotate(-78.4224 154.319 719.532)" fill="#D2D6DB"/>
<circle cx="1138.5" cy="321.5" r="1.5" fill="#D2D6DB"/>
<circle cx="448.5" cy="93.5" r="1.5" fill="#D2D6DB"/>
<circle cx="764.5" cy="76.5" r="1.5" fill="#D2D6DB"/>
<circle cx="312.5" cy="365.5" r="1.5" fill="#E3B5B5"/>
<circle cx="294.5" cy="622.5" r="1.5" fill="#D2D6DB"/>
<circle cx="1348.5" cy="332.5" r="1.5" fill="#D2D6DB"/>
<circle cx="722.5" cy="231.5" r="1.5" fill="#D2D6DB"/>
<circle cx="1006.5" cy="517.5" r="1.5" fill="#D2D6DB"/>
<circle cx="740.5" cy="230.5" r="1.5" fill="#D2D6DB"/>
<circle cx="1278.5" cy="201.5" r="1.5" fill="#D2D6DB"/>
<circle cx="159.5" cy="131.5" r="1.5" fill="#E3B5B5"/>
<circle cx="1099.29" cy="159.242" r="1.5" transform="rotate(-33.519 1099.29 159.242)" fill="#E3B5B5"/>
<circle cx="1265.08" cy="161.543" r="1.5" transform="rotate(-33.519 1265.08 161.543)" fill="#E3B5B5"/>
<circle cx="374.5" cy="546.5" r="1.5" fill="#D2D6DB"/>
<circle cx="921.5" cy="223.5" r="1.5" fill="#E3B5B5"/>
<circle cx="1117.82" cy="888.797" r="1.5" transform="rotate(-75.8555 1117.82 888.797)" fill="#D2D6DB"/>
<circle cx="121.432" cy="790.373" r="1.5" transform="rotate(-78.4224 121.432 790.373)" fill="#D2D6DB"/>
<circle cx="1062.5" cy="303.5" r="1.5" fill="#D2D6DB"/>
<circle cx="331.5" cy="106.5" r="1.5" fill="#D2D6DB"/>
<circle cx="1228.88" cy="43.4188" r="1.5" transform="rotate(-33.519 1228.88 43.4188)" fill="#D2D6DB"/>
<circle cx="1394.67" cy="45.7198" r="1.5" transform="rotate(-33.519 1394.67 45.7198)" fill="#D2D6DB"/>
<circle cx="1188.5" cy="224.5" r="1.5" fill="#D2D6DB"/>
<path d="M123.812 661.104L123.283 661.686L123.283 662.472C123.283 672.088 118.474 677.197 113.636 681.834C113.383 682.076 113.128 682.32 112.871 682.564C110.727 684.605 108.502 686.724 106.998 689.103C105.215 691.921 104.391 695.159 105.414 699.193C107.344 706.801 112.954 711.447 119.354 714.842C122.557 716.541 126.036 717.969 129.462 719.308C130.285 719.629 131.103 719.945 131.914 720.258C134.515 721.262 137.047 722.239 139.454 723.297C141.389 724.147 143.314 724.235 145.156 723.688C146.945 723.157 148.546 722.063 149.98 720.729C152.816 718.093 155.432 714.1 157.918 710.096C158.4 709.319 158.879 708.539 159.356 707.763C161.398 704.437 163.406 701.167 165.519 698.398C168.161 694.935 170.661 692.686 173.125 691.999C176.432 691.078 180.146 691.919 184.218 693.846C187.775 695.529 191.32 697.897 194.802 700.223C195.302 700.557 195.8 700.889 196.296 701.219C198.245 702.513 200.174 703.76 202.009 704.765C203.831 705.762 205.673 706.586 207.449 706.956C209.252 707.332 211.135 707.268 212.848 706.29C214.544 705.322 215.755 703.639 216.6 701.431C220.038 692.459 222.596 684.764 222.384 677.543C222.166 670.137 219.06 663.477 211.837 656.494C208.152 652.932 204.182 651.684 200.049 652.021C196.06 652.345 192.069 654.136 188.196 656.277C186.241 657.357 184.256 658.562 182.275 659.766L182.221 659.799C180.246 661 178.268 662.201 176.257 663.326C172.189 665.601 168.115 667.483 163.959 668.303C161.422 668.803 158.402 668.2 154.931 666.89C152.275 665.888 149.569 664.561 146.801 663.204C145.957 662.79 145.108 662.373 144.252 661.962C140.696 660.254 136.998 658.623 133.578 658.084C130.047 657.529 126.541 658.106 123.812 661.104Z" stroke="#535DB2" stroke-width="4.06424"/>
<path d="M1298.14 721.243L1297.6 721.836L1297.6 722.637C1297.6 732.441 1292.7 737.65 1287.77 742.377C1287.51 742.624 1287.25 742.872 1286.99 743.121C1284.8 745.202 1282.53 747.362 1281 749.788C1279.18 752.661 1278.34 755.962 1279.38 760.074C1281.35 767.831 1287.07 772.568 1293.59 776.029C1296.86 777.761 1300.41 779.217 1303.9 780.581C1304.74 780.909 1305.57 781.231 1306.4 781.551C1309.05 782.574 1311.63 783.57 1314.09 784.649C1316.06 785.515 1318.02 785.605 1319.9 785.047C1321.72 784.506 1323.36 783.391 1324.82 782.031C1327.71 779.343 1330.38 775.272 1332.91 771.19C1333.4 770.398 1333.89 769.603 1334.38 768.811C1336.46 765.42 1338.51 762.087 1340.66 759.264C1343.35 755.733 1345.9 753.44 1348.41 752.74C1351.79 751.801 1355.57 752.659 1359.72 754.623C1363.35 756.339 1366.96 758.753 1370.51 761.125C1371.02 761.465 1371.53 761.804 1372.04 762.14C1374.02 763.459 1375.99 764.731 1377.86 765.755C1379.72 766.772 1381.6 767.612 1383.41 767.989C1385.25 768.372 1387.17 768.307 1388.91 767.31C1390.64 766.323 1391.88 764.607 1392.74 762.356C1396.24 753.209 1398.85 745.364 1398.63 738.002C1398.41 730.452 1395.25 723.662 1387.88 716.543C1384.13 712.912 1380.08 711.639 1375.86 711.982C1371.8 712.313 1367.73 714.138 1363.78 716.321C1361.79 717.423 1359.76 718.651 1357.74 719.879L1357.69 719.912C1355.67 721.136 1353.66 722.361 1351.61 723.508C1347.46 725.827 1343.31 727.746 1339.07 728.582C1336.48 729.092 1333.4 728.477 1329.87 727.142C1327.16 726.119 1324.4 724.767 1321.58 723.383C1320.72 722.961 1319.85 722.537 1318.98 722.118C1315.35 720.376 1311.58 718.713 1308.1 718.164C1304.5 717.597 1300.92 718.186 1298.14 721.243Z" stroke="#535DB2" stroke-width="4.14351"/>
<path d="M1326.22 265.318L1325.9 265.671L1325.9 266.149C1325.9 271.993 1322.97 275.098 1320.03 277.916C1319.88 278.063 1319.72 278.211 1319.57 278.359C1318.27 279.6 1316.91 280.888 1316 282.333C1314.92 284.046 1314.41 286.014 1315.04 288.466C1316.21 293.089 1319.62 295.913 1323.51 297.976C1325.45 299.009 1327.57 299.877 1329.65 300.69C1330.15 300.886 1330.65 301.077 1331.14 301.268C1332.72 301.878 1334.26 302.472 1335.72 303.115C1336.9 303.631 1338.07 303.685 1339.19 303.352C1340.28 303.03 1341.25 302.365 1342.12 301.554C1343.84 299.952 1345.43 297.525 1346.94 295.092C1347.24 294.62 1347.53 294.146 1347.82 293.674C1349.06 291.652 1350.28 289.666 1351.56 287.982C1353.17 285.878 1354.69 284.511 1356.19 284.094C1358.2 283.534 1360.45 284.045 1362.93 285.216C1365.09 286.239 1367.24 287.678 1369.36 289.092C1369.66 289.294 1369.97 289.497 1370.27 289.697C1371.45 290.483 1372.63 291.241 1373.74 291.852C1374.85 292.458 1375.97 292.959 1377.05 293.183C1378.14 293.412 1379.29 293.373 1380.33 292.779C1381.36 292.19 1382.09 291.168 1382.61 289.826C1384.7 284.373 1386.25 279.696 1386.12 275.308C1385.99 270.807 1384.1 266.76 1379.71 262.516C1377.47 260.351 1375.06 259.593 1372.55 259.797C1370.13 259.994 1367.7 261.083 1365.35 262.384C1364.16 263.04 1362.95 263.773 1361.75 264.505L1361.72 264.524C1360.51 265.254 1359.31 265.984 1358.09 266.668C1355.62 268.05 1353.14 269.194 1350.62 269.692C1349.07 269.997 1347.24 269.63 1345.13 268.834C1343.52 268.225 1341.87 267.418 1340.19 266.593C1339.68 266.342 1339.16 266.089 1338.64 265.839C1336.48 264.801 1334.23 263.809 1332.15 263.482C1330.01 263.144 1327.88 263.496 1326.22 265.318Z" stroke="#535DB2" stroke-width="2.47"/>
<path d="M298.775 338.851L299.001 338.651L299.109 338.37C301.198 332.917 302.752 328.24 302.623 323.852C302.491 319.351 300.604 315.304 296.214 311.06C294.081 308.998 291.859 307.787 289.533 307.202C287.22 306.621 284.875 306.676 282.518 307.038C280.171 307.398 277.75 308.075 275.297 308.774C275.165 308.811 275.034 308.849 274.902 308.886C272.552 309.556 270.154 310.24 267.64 310.736C266.009 311.058 263.668 310.799 260.828 310.319C260.068 310.19 259.276 310.046 258.466 309.899C256.353 309.515 254.114 309.109 251.988 308.888C249.055 308.584 246.076 308.596 243.656 309.625C241.113 310.706 239.342 312.842 238.781 316.349L238.765 316.446L238.765 316.544C238.765 318.281 239.076 319.723 239.698 320.895C240.329 322.08 241.239 322.913 242.306 323.481C244.359 324.576 247.008 324.688 249.399 324.681C249.948 324.68 250.486 324.672 251.01 324.665C252.902 324.638 254.618 324.614 256.072 324.888C256.97 325.058 257.653 325.325 258.147 325.702C258.617 326.059 258.982 326.562 259.182 327.348C259.589 328.952 259.07 330.887 257.878 333.138C256.841 335.095 255.413 337.083 253.995 339.057C253.798 339.332 253.601 339.606 253.405 339.88C251.862 342.039 250.324 344.267 249.737 346.219C249.435 347.224 249.334 348.312 249.751 349.338C250.177 350.388 251.05 351.143 252.224 351.659C254.596 352.701 256.736 351.973 258.54 350.575C260.288 349.221 261.895 347.117 263.411 345.002C263.757 344.52 264.099 344.036 264.439 343.554C265.633 341.864 266.804 340.205 268.038 338.774C269.632 336.924 271.163 335.665 272.71 335.234C274.811 334.649 276.809 334.958 278.84 335.731C280.476 336.354 282.042 337.238 283.671 338.157C284.111 338.406 284.556 338.657 285.008 338.906C287.061 340.037 289.269 341.132 291.579 341.38C293.984 341.639 296.387 340.972 298.775 338.851Z" stroke="#535DB2" stroke-width="2.47"/>
<path d="M937.775 273.851L938.001 273.651L938.109 273.37C940.198 267.917 941.752 263.24 941.623 258.852C941.491 254.351 939.604 250.304 935.214 246.06C933.081 243.998 930.859 242.787 928.533 242.202C926.22 241.621 923.875 241.676 921.518 242.038C919.171 242.398 916.75 243.075 914.297 243.774C914.165 243.811 914.034 243.849 913.902 243.886C911.552 244.556 909.154 245.24 906.64 245.736C905.009 246.058 902.668 245.799 899.828 245.319C899.068 245.19 898.276 245.046 897.466 244.899C895.353 244.515 893.114 244.109 890.988 243.888C888.055 243.584 885.076 243.596 882.656 244.625C880.113 245.706 878.342 247.842 877.781 251.349L877.765 251.446L877.765 251.544C877.765 253.281 878.076 254.723 878.698 255.895C879.329 257.08 880.239 257.913 881.306 258.481C883.359 259.576 886.008 259.688 888.399 259.681C888.948 259.68 889.486 259.672 890.01 259.665C891.902 259.638 893.618 259.614 895.072 259.888C895.97 260.058 896.653 260.325 897.147 260.702C897.617 261.059 897.982 261.562 898.182 262.348C898.589 263.952 898.07 265.887 896.878 268.138C895.841 270.095 894.413 272.083 892.995 274.057C892.798 274.332 892.601 274.606 892.405 274.88C890.862 277.039 889.324 279.267 888.737 281.219C888.435 282.224 888.334 283.312 888.751 284.338C889.177 285.388 890.05 286.143 891.224 286.659C893.596 287.701 895.736 286.973 897.54 285.575C899.288 284.221 900.895 282.117 902.411 280.002C902.757 279.52 903.099 279.036 903.439 278.554C904.633 276.864 905.804 275.205 907.038 273.774C908.632 271.924 910.163 270.665 911.71 270.234C913.811 269.649 915.809 269.958 917.84 270.731C919.476 271.354 921.042 272.238 922.671 273.157C923.111 273.406 923.556 273.657 924.008 273.906C926.061 275.037 928.269 276.132 930.579 276.38C932.984 276.639 935.387 275.972 937.775 273.851Z" stroke="#535DB2" stroke-width="2.47"/>
<path d="M99.3915 187.522C100.052 187.132 100.613 186.698 100.994 186.199C101.392 185.678 101.645 185.004 101.471 184.262C101.309 183.572 100.834 183.084 100.377 182.754C99.9084 182.416 99.3264 182.148 98.7016 181.931C96.235 181.071 92.1413 180.669 87.8283 180.784C83.4902 180.901 78.7441 181.545 74.9456 182.897C71.2572 184.209 67.9413 186.385 67.4636 189.888C67.1794 191.972 66.4913 193.225 65.6387 193.976C64.7843 194.728 63.6025 195.119 62.0464 195.152C58.8566 195.219 54.6119 193.778 50.0406 191.827C48.093 190.996 46.13 190.092 44.205 189.206C43.8979 189.065 43.5917 188.924 43.2866 188.784C41.0814 187.771 38.9348 186.798 36.9847 186.036C35.0494 185.279 33.2242 184.695 31.6743 184.503C30.1895 184.319 28.5998 184.453 27.5341 185.585C24.4957 188.405 23.2117 190.966 23.9789 193.399C24.3438 194.556 25.1298 195.496 26.048 196.275C26.9681 197.057 28.0998 197.744 29.2806 198.376C30.254 198.897 31.3056 199.404 32.342 199.903C32.5633 200.01 32.784 200.117 33.0031 200.223C34.2638 200.833 35.4855 201.442 36.5887 202.094C38.8564 203.435 40.3126 204.789 40.7106 206.359C41.0085 207.533 41.4875 208.491 42.2072 209.179C42.9452 209.884 43.8342 210.209 44.7574 210.289C46.478 210.436 48.4862 209.731 50.3472 209.021C50.688 208.892 51.029 208.759 51.3702 208.627C53.0066 207.992 54.6475 207.355 56.2988 206.974C58.2736 206.519 60.0827 206.479 61.6905 207.186C66.9473 209.495 68.9446 214.284 70.6083 218.687C70.6696 218.849 70.7307 219.012 70.792 219.175C71.5237 221.121 72.2615 223.083 73.2887 224.434C73.8722 225.201 74.6066 225.855 75.5668 226.204C76.5345 226.556 77.5952 226.547 78.7391 226.229C80.16 225.833 81.2263 225.164 82.0076 224.268C82.7775 223.386 83.2047 222.358 83.4761 221.348C83.723 220.429 83.8576 219.454 83.9802 218.565C83.9904 218.492 84.0004 218.419 84.0105 218.346C84.1469 217.365 84.2806 216.487 84.5274 215.695C84.7692 214.918 85.1038 214.281 85.6056 213.772C86.1022 213.269 86.8331 212.82 87.9828 212.531C90.347 211.936 94.3263 212.055 101.081 213.641C101.825 213.816 102.47 213.923 103 213.935C103.454 213.945 104.172 213.899 104.693 213.387C105.331 212.761 105.21 211.957 105.076 211.531C104.935 211.086 104.666 210.637 104.389 210.232C103.836 209.426 102.983 208.422 102.063 207.341L101.994 207.259C101.028 206.122 99.953 204.856 98.9244 203.496C96.8367 200.735 95.0947 197.783 94.7983 195.023C94.6541 193.681 94.8536 192.397 95.5227 191.178C96.1975 189.95 97.3972 188.701 99.3915 187.522Z" stroke="#535DB2" stroke-width="2.47"/>
</g>
<defs>
<clipPath id="clip0_24_33">
<rect width="1440" height="1024" fill="white"/>
</clipPath>
</defs>
</svg>
